<svg xmlns="http://www.w3.org/2000/svg" aria-hidden="true" style="position:absolute;width:0;height:0;overflow:hidden">
  <defs>
    <!-- Features icons -->
    <symbol id="icon-antenna" viewBox="0 0 32 32">
      <path d="M31.5 16c0 8.56-6.94 15.5-15.5 15.5S.5 24.56.5 16 7.44.5 16 .5 31.5 7.44 31.5 16z"/>
      <path d="M16 8a8 8 0 100 16 8 8 0 000-16zm0 2a6 6 0 110 12 6 6 0 010-12z"/>
      <circle cx="16" cy="16" r="2"/>
    </symbol>
    
    <symbol id="icon-clock" viewBox="0 0 32 32">
      <path d="M31.297 15.301C31.295 22.751 25.147 28.899 17.697 28.901c-7.45.002-13.598-6.146-13.6-13.596S10.243 1.707 17.693 1.705c7.45-.002 13.598 6.146 13.6 13.596h.004zm-1.117.026c-.023-6.785-5.569-12.278-12.354-12.255-6.785.023-12.278 5.569-12.255 12.354s5.569 12.278 12.354 12.255c6.785-.023 12.278-5.569 12.255-12.354zM17.136 5.96v10.068l6.665 4.446a.59.59 0 01.179.814l-.371.556a.59.59 0 01-.814.179l-7.202-4.805a.587.587 0 01-.266-.493V5.96c0-.326.264-.59.59-.59h.629c.326 0 .59.264.59.59z"/>
    </symbol>
    
    <symbol id="icon-diagram" viewBox="0 0 32 32">
      <path d="M14.925 14.965h1.066v6.318h-1.066v-6.318zM19.19 17.653h1.066v3.631H19.19v-3.631zM10.659 19.076h1.066v2.208h-1.066v-2.208zM23.455 14.965h1.066v6.318h-1.066v-6.318zM6.394 18.364h1.066v2.919H6.394v-2.919z"/>
      <path d="M3.706 23.695h24.588v1.421H3.706v-1.421zM28.8 25.6H3.2c-.5 0-.906-.405-.906-.906V7.706c0-.5.405-.906.906-.906h25.6c.5 0 .906.405.906.906v16.988c0 .5-.406.906-.906.906zM4.106 23.789h23.788V8.611H4.106v15.178z"/>
    </symbol>
    
    <symbol id="icon-astronaut" viewBox="0 0 32 32">
      <path d="M31.974 4.524a.534.534 0 00-.43-.493l-1.694-.314-6.901-3.517a.534.534 0 00-.484.002l-6.901 3.517-1.694.314a.534.534 0 00-.43.493.532.532 0 00.312.481l1.744.826-1.352 2.276-1.88-.89a.534.534 0 00-.484.002l-6.901 3.517-1.694.314a.534.534 0 00-.43.493.532.532 0 00.312.481l1.744.826-1.352 2.276-1.88-.89a.534.534 0 00-.484.002l-6.901 3.517-1.694.314a.535.535 0 00-.43.493.532.532 0 00.312.481l8.335 3.947c.143.068.308.068.451 0l6.901-3.517a.534.534 0 00.011-.962l-1.88-.89 1.352-2.276 1.744.826c.143.068.308.068.451 0l6.901-3.517a.534.534 0 00.011-.962l-1.88-.89 1.352-2.276 1.744.826a.534.534 0 00.694-.168.532.532 0 00-.119-.661zM9.631 26.642L3.067 23.5l1.151-.535 6.564 3.111-.151.566zm-.562-1.11l-6.901-3.27 6.563-3.346 6.901 3.27-6.563 3.346zm1.289-.606l6.901-3.517.151.566-6.9 3.517-.152-.566zm8.563-8.666l-6.901 3.517-1.151-.535 6.564-3.111.488 1.129zm-.562-1.11l-6.901-3.27 6.563-3.346 6.901 3.27-6.563 3.346zm1.289-.606l6.901-3.517.151.566-6.9 3.517-.152-.566zm8.563-8.666l-6.901 3.517-1.151-.535 6.564-3.111.488 1.129zm-.562-1.11l-6.901-3.27 6.563-3.346 6.901 3.27-6.563 3.346z"/>
    </symbol>

    <!-- Social media icons -->
    <symbol id="icon-instagram" viewBox="0 0 32 32">
      <path d="M16 2.881c4.275 0 4.781.019 6.462.094 1.563.069 2.406.331 2.969.55a4.952 4.952 0 011.837 1.194 5.015 5.015 0 011.2 1.838c.219.563.481 1.412.55 2.969.075 1.688.094 2.194.094 6.463s-.019 4.781-.094 6.463c-.069 1.563-.331 2.406-.55 2.969a4.94 4.94 0 01-1.194 1.837 5.02 5.02 0 01-1.837 1.2c-.563.219-1.413.481-2.969.55-1.688.075-2.194.094-6.463.094s-4.781-.019-6.463-.094c-1.563-.069-2.406-.331-2.969-.55a4.952 4.952 0 01-1.838-1.194 5.02 5.02 0 01-1.2-1.837c-.219-.563-.481-1.413-.55-2.969-.075-1.688-.094-2.194-.094-6.463s.019-4.781.094-6.463c.069-1.563.331-2.406.55-2.969a4.964 4.964 0 011.194-1.838 5.015 5.015 0 011.838-1.2c.563-.219 1.412-.481 2.969-.55 1.681-.075 2.188-.094 6.463-.094zM16 0c-4.344 0-4.887.019-6.594.094-1.7.075-2.869.35-3.881.744-1.056.412-1.95.956-2.837 1.85a7.833 7.833 0 00-1.85 2.831C.444 6.538.169 7.7.094 9.4.019 11.113 0 11.656 0 16s.019 4.887.094 6.594c.075 1.7.35 2.869.744 3.881.413 1.056.956 1.95 1.85 2.837a7.82 7.82 0 002.831 1.844c1.019.394 2.181.669 3.881.744 1.706.075 2.25.094 6.594.094s4.888-.019 6.594-.094c1.7-.075 2.869-.35 3.881-.744 1.05-.406 1.944-.956 2.831-1.844s1.438-1.781 1.844-2.831c.394-1.019.669-2.181.744-3.881.075-1.706.094-2.25.094-6.594s-.019-4.887-.094-6.594c-.075-1.7-.35-2.869-.744-3.881a7.506 7.506 0 00-1.831-2.844A7.82 7.82 0 0026.482.85C25.463.456 24.301.181 22.601.106 20.894.019 20.35 0 16.006 0h-.012z"/>
      <path d="M16 7.781c-4.537 0-8.219 3.681-8.219 8.219s3.681 8.219 8.219 8.219 8.219-3.681 8.219-8.219A8.221 8.221 0 0016 7.781zm0 13.55a5.331 5.331 0 110-10.663 5.331 5.331 0 010 10.663zM26.462 7.456a1.919 1.919 0 11-3.838 0 1.919 1.919 0 013.838 0z"/>
    </symbol>
    
    <symbol id="icon-twitter" viewBox="0 0 32 32">
      <path d="M32 6.078c-1.19.522-2.458.868-3.78 1.036a6.523 6.523 0 002.886-3.626 13.11 13.11 0 01-4.16 1.588A6.574 6.574 0 0022.154 3c-3.632 0-6.556 2.948-6.556 6.562 0 .52.044 1.02.152 1.496-5.454-.266-10.28-2.88-13.522-6.862a6.605 6.605 0 00-.898 3.316 6.57 6.57 0 002.914 5.452 6.479 6.479 0 01-2.964-.808v.072c0 3.188 2.274 5.836 5.256 6.446a6.548 6.548 0 01-1.72.216 5.8 5.8 0 01-1.242-.112c.85 2.598 3.262 4.508 6.13 4.57a13.182 13.182 0 01-8.134 2.798c-.538 0-1.054-.024-1.57-.08a18.57 18.57 0 0010.064 2.94c12.072 0 18.672-10 18.672-18.668 0-.29-.01-.57-.024-.848A13.43 13.43 0 0032 6.078z"/>
    </symbol>
    
    <symbol id="icon-facebook" viewBox="0 0 32 32">
      <path d="M21.329 5.313h2.921V.225C23.746.156 22.013 0 19.994 0c-4.212 0-7.097 2.649-7.097 7.519V12H8.249v5.688h4.648V32h5.699V17.689h4.46l.708-5.688h-5.169V8.082c.001-1.644.444-2.769 2.735-2.769z"/>
    </symbol>
    
    <symbol id="icon-linkedin" viewBox="0 0 32 32">
      <path d="M31.992 32v-.001H32V20.263c0-5.741-1.236-10.164-7.948-10.164-3.227 0-5.392 1.771-6.276 3.449h-.093v-2.913h-6.364v21.364h6.627V21.42c0-2.785.528-5.479 3.977-5.479 3.399 0 3.449 3.179 3.449 5.657v10.401h6.62zM.528 10.636h6.635V32H.528V10.636zM3.843 0C1.722 0 0 1.721 0 3.843s1.721 3.879 3.843 3.879c2.121 0 3.843-1.757 3.843-3.879A3.846 3.846 0 003.843 0z"/>
    </symbol>
  </defs>
</svg>